<?xml version="1.0" standalone="no"?>
<!DOCTYPE svg PUBLIC "-//W3C//DTD SVG 20010904//EN"
 "http://www.w3.org/TR/2001/REC-SVG-20010904/DTD/svg10.dtd">
<svg version="1.0" xmlns="http://www.w3.org/2000/svg"
 width="1700.000000pt" height="1700.000000pt" viewBox="0 0 1700.000000 1700.000000"
 preserveAspectRatio="xMidYMid meet">
<metadata>
Created by potrace 1.14, written by Peter Selinger 2001-2017
</metadata>
<g transform="translate(0.000000,1700.000000) scale(0.100000,-0.100000)"
fill="#000000" stroke="none">
<path d="M6829 12436 c-2 -2 -60 -7 -129 -11 -203 -12 -196 -11 -370 -30 -25
-2 -65 -7 -90 -11 -25 -3 -56 -8 -70 -9 -14 -2 -43 -6 -65 -10 -22 -3 -58 -8
-80 -10 -22 -3 -67 -10 -100 -16 -33 -6 -70 -13 -82 -15 -13 -2 -35 -6 -50 -9
-16 -3 -44 -8 -63 -11 -19 -3 -42 -8 -50 -11 -8 -3 -28 -7 -44 -9 -17 -3 -48
-9 -70 -15 -23 -6 -50 -13 -61 -15 -36 -6 -139 -31 -260 -63 -89 -24 -94 -26
-115 -34 -8 -3 -44 -13 -80 -22 -71 -19 -323 -100 -355 -115 -11 -5 -49 -19
-85 -31 -36 -12 -71 -26 -77 -31 -7 -6 -13 -8 -13 -4 0 4 -18 -3 -40 -14 -22
-11 -40 -18 -40 -15 0 4 -12 0 -27 -9 -16 -8 -111 -49 -213 -92 -248 -104
-512 -239 -745 -382 -49 -30 -106 -64 -125 -76 -19 -11 -39 -24 -45 -29 -5 -4
-46 -31 -90 -60 -44 -28 -82 -54 -85 -57 -3 -3 -32 -23 -65 -45 -33 -22 -62
-42 -65 -45 -3 -3 -30 -23 -60 -45 -78 -56 -273 -206 -285 -219 -5 -6 -32 -29
-60 -51 -69 -55 -71 -57 -103 -85 -15 -14 -61 -54 -102 -90 -199 -175 -429
-405 -575 -575 -33 -38 -67 -76 -75 -85 -31 -33 -66 -76 -95 -114 -17 -22 -45
-56 -62 -75 -18 -20 -33 -39 -33 -43 0 -5 -9 -17 -21 -29 -11 -11 -21 -28 -21
-37 -1 -30 12 -184 16 -191 2 -3 7 -26 11 -50 13 -85 86 -290 107 -299 4 -2 8
-10 8 -18 0 -8 5 -14 10 -14 6 0 10 -6 10 -14 0 -18 103 -119 139 -138 14 -7
28 -16 31 -19 6 -6 164 -59 195 -65 19 -4 92 -18 145 -29 30 -7 69 -13 113
-20 17 -2 50 -8 72 -11 22 -4 49 -9 60 -10 28 -3 96 -14 121 -19 12 -3 39 -7
60 -11 21 -3 43 -8 47 -11 4 -2 20 -6 35 -8 41 -5 182 -44 206 -57 12 -6 22
-10 24 -9 18 17 372 -174 372 -199 0 -4 -39 -26 -88 -51 -48 -24 -93 -50 -100
-56 -7 -7 -17 -13 -22 -13 -12 0 -189 -106 -222 -133 l-28 -22 80 -125 c44
-69 83 -132 87 -140 4 -8 12 -20 17 -27 19 -21 30 -36 76 -103 41 -60 83 -113
208 -260 26 -30 83 -92 127 -137 78 -81 81 -83 125 -82 25 1 56 4 70 8 55 16
58 9 44 -92 -28 -200 -124 -344 -280 -421 -44 -21 -87 -42 -96 -47 -36 -18
-166 -61 -228 -75 -36 -8 -74 -16 -85 -19 -42 -9 -135 -16 -275 -19 -134 -3
-229 -10 -305 -22 -16 -3 -41 -7 -55 -9 -59 -9 -106 -16 -120 -20 -8 -2 -28
-7 -45 -9 -16 -3 -79 -19 -140 -36 -60 -17 -114 -32 -120 -33 -5 -1 -14 -5
-20 -8 -5 -3 -32 -12 -60 -19 -27 -8 -60 -20 -72 -28 -13 -8 -23 -11 -23 -8 0
4 -12 1 -27 -7 -16 -8 -48 -23 -73 -33 -84 -33 -333 -165 -417 -219 -46 -30
-88 -55 -93 -55 -6 0 -10 -3 -10 -7 0 -5 -17 -19 -38 -33 -20 -14 -39 -27 -42
-30 -3 -3 -21 -17 -40 -30 -32 -22 -62 -47 -94 -75 -6 -5 -40 -35 -75 -65
-130 -111 -368 -363 -405 -429 -5 -9 -16 -22 -23 -30 -8 -7 -47 -63 -87 -125
-92 -139 -169 -280 -241 -441 -14 -33 -33 -74 -41 -92 -15 -33 -17 -64 -8 -99
9 -34 139 -107 214 -120 14 -3 34 -8 45 -11 84 -27 381 -40 430 -19 11 5 27
10 35 11 37 4 77 35 123 95 83 110 110 142 170 208 174 188 330 316 544 445
44 26 85 47 91 47 5 0 12 3 14 8 5 11 203 104 248 116 14 4 34 11 45 16 28 13
169 56 240 74 136 34 195 41 365 41 128 0 255 -8 255 -15 0 -1 14 -3 30 -5 17
-2 68 -13 115 -25 47 -12 92 -24 100 -25 8 -2 16 -4 18 -5 1 -2 5 -3 10 -4 4
-1 13 -5 20 -9 6 -5 12 -6 12 -3 0 3 37 -9 83 -25 45 -17 93 -34 107 -39 14
-4 39 -14 55 -21 17 -7 33 -13 37 -13 3 -1 10 -4 14 -9 4 -4 13 -7 20 -7 8 0
39 -12 71 -26 74 -33 75 -34 221 -94 68 -28 131 -55 140 -60 38 -21 182 -64
287 -86 57 -12 151 -19 245 -18 100 0 248 11 261 19 3 2 21 7 40 10 62 10 234
56 245 66 6 5 13 7 15 5 14 -15 300 -36 504 -39 91 0 259 9 304 18 10 2 34 6
52 9 180 30 389 80 507 120 40 13 72 22 72 19 0 -3 6 -1 13 4 10 9 73 33 100
39 4 1 9 3 12 4 3 1 8 3 13 5 4 1 16 5 27 10 11 4 47 18 80 30 33 13 74 29 90
36 17 7 32 13 35 14 3 1 19 7 35 14 17 7 35 14 40 16 12 3 76 30 130 55 36 17
92 41 105 45 3 1 34 15 70 32 36 17 88 41 115 53 28 12 99 47 159 76 60 30
115 54 123 54 7 0 13 4 13 8 0 5 19 16 42 27 23 10 106 49 184 86 78 38 145
69 149 69 3 0 25 8 48 19 144 64 531 189 670 216 15 3 39 7 55 10 15 3 34 8
42 10 8 3 32 7 54 11 21 3 48 8 60 10 11 3 37 7 56 10 32 5 53 7 150 19 38 4
279 18 295 17 6 0 57 -3 115 -7 109 -6 138 -8 230 -19 30 -4 73 -8 95 -11 22
-2 49 -6 61 -9 12 -2 45 -7 75 -11 30 -3 62 -8 71 -11 9 -3 32 -7 50 -9 18 -2
44 -7 58 -10 14 -4 36 -8 50 -10 14 -1 32 -5 40 -8 8 -3 49 -13 90 -23 41 -9
93 -23 116 -30 22 -8 49 -15 60 -17 33 -5 49 -20 96 -94 58 -92 89 -132 158
-203 54 -55 170 -147 200 -158 8 -3 17 -9 20 -12 16 -22 252 -118 330 -134 14
-3 43 -10 65 -15 22 -5 58 -12 80 -15 23 -4 52 -9 65 -12 109 -23 491 -22 695
1 17 2 50 6 75 8 25 3 52 7 60 10 8 3 45 11 82 17 38 6 116 22 175 36 140 32
131 30 183 45 25 7 47 13 50 14 3 1 25 7 50 14 25 7 50 14 55 15 6 1 16 5 23
9 6 5 12 6 12 3 0 -3 19 1 41 9 23 8 52 15 65 15 13 0 24 4 24 8 0 4 10 9 23
10 25 2 62 10 62 12 0 2 19 7 55 14 14 3 77 17 140 32 131 29 135 30 210 44
30 6 66 12 80 15 13 3 42 7 65 10 22 3 51 8 65 10 90 16 226 27 315 27 44 -1
80 -1 80 -2 0 -1 16 -4 35 -5 19 -2 54 -10 77 -19 22 -8 44 -12 47 -9 3 4 6 0
6 -7 0 -7 3 -11 6 -7 8 7 55 -9 194 -70 36 -15 67 -28 70 -29 8 -1 103 -48
120 -59 8 -5 17 -10 20 -11 3 0 61 -28 130 -61 69 -33 141 -67 160 -76 115
-52 175 -78 175 -77 0 2 33 -11 90 -36 30 -12 75 -29 215 -79 41 -15 82 -29
90 -32 8 -3 20 -7 25 -9 6 -1 53 -17 105 -34 52 -17 106 -34 120 -36 14 -3 45
-11 70 -19 46 -15 159 -43 195 -49 11 -2 48 -9 82 -15 34 -7 82 -14 105 -18
64 -8 289 -9 318 -1 119 34 169 53 207 80 98 67 141 137 150 243 7 83 -13 108
-88 111 -74 3 -156 13 -204 26 -22 5 -51 12 -65 15 -75 13 -259 66 -369 105
-45 17 -88 31 -95 32 -6 1 -28 10 -50 19 -21 9 -41 17 -44 17 -3 0 -26 9 -51
21 -25 11 -64 28 -86 38 -114 51 -324 160 -347 179 -10 9 -18 12 -18 9 0 -10
-379 226 -425 265 -5 5 -46 36 -90 69 -114 85 -174 138 -312 274 -126 125
-142 140 -208 191 -46 36 -155 94 -177 94 -8 0 -18 3 -22 8 -19 19 -139 30
-266 26 -209 -8 -370 -3 -435 13 -11 3 -40 9 -65 13 -25 5 -55 12 -67 15 -13
3 -31 7 -41 9 -95 21 -282 104 -365 160 -21 14 -42 26 -46 26 -5 0 -11 7 -15
15 -3 8 -12 15 -20 15 -8 0 -16 3 -18 8 -1 4 -19 20 -38 36 -143 117 -458 432
-565 564 -5 7 -22 25 -36 40 -22 23 -99 112 -234 274 -16 19 -41 50 -55 68
-14 18 -33 42 -44 54 -10 11 -30 37 -45 56 -40 54 -71 89 -129 149 -57 58 -57
60 12 81 22 7 55 18 71 25 17 7 40 16 53 20 12 3 22 11 22 17 0 6 3 9 6 5 14
-14 250 134 324 203 18 16 34 30 35 30 6 0 119 116 159 163 51 61 141 198 178
270 31 63 98 224 98 238 0 5 -29 -9 -65 -31 -92 -56 -252 -139 -258 -133 -3 2
6 30 18 62 13 32 26 71 29 87 2 16 5 29 6 29 4 0 11 43 14 80 2 39 4 40 37 39
35 -2 84 -9 129 -19 14 -3 52 -10 85 -16 33 -6 80 -15 105 -19 25 -5 59 -12
75 -15 17 -3 41 -8 55 -11 14 -3 36 -8 50 -11 14 -2 70 -15 125 -28 55 -14
112 -26 125 -29 14 -2 25 -5 25 -6 0 -1 9 -3 20 -5 17 -3 113 -27 165 -41 8
-2 40 -10 70 -18 30 -7 82 -22 115 -32 33 -10 65 -19 70 -20 18 -3 177 -51
295 -88 63 -20 122 -38 130 -41 8 -2 15 -4 15 -5 0 -1 7 -3 15 -5 15 -4 68
-21 105 -36 50 -18 60 -22 65 -23 3 -1 19 -6 35 -13 17 -6 68 -25 115 -43 47
-17 94 -35 105 -40 24 -10 58 -23 65 -24 16 -4 127 -51 134 -58 6 -4 16 -8 23
-8 7 0 47 -16 89 -35 41 -19 78 -35 80 -35 5 0 47 -18 149 -65 28 -13 73 -33
100 -45 151 -66 700 -349 775 -399 28 -19 81 -43 85 -39 28 31 155 269 210
393 15 33 31 69 36 80 14 31 100 268 104 287 2 9 13 50 24 90 11 40 23 87 25
103 3 17 10 45 15 64 6 18 10 36 9 40 -1 6 8 74 18 131 3 14 7 60 10 102 l6
78 -96 45 c-53 25 -102 45 -109 45 -7 0 -17 4 -23 9 -5 6 -83 40 -174 76 -91
37 -176 72 -190 78 -14 5 -34 12 -44 14 -11 2 -25 8 -31 13 -6 5 -20 11 -31
13 -10 2 -30 8 -44 14 -14 5 -61 22 -105 37 -44 16 -89 32 -100 36 -32 13 -59
23 -70 25 -5 2 -68 22 -140 46 -71 23 -135 42 -142 42 -7 0 -13 3 -13 7 0 3
-8 6 -18 7 -28 2 -47 7 -52 15 -3 4 -17 9 -30 11 -14 3 -115 30 -225 61 -110
31 -209 58 -220 61 -89 20 -162 37 -175 42 -18 7 -27 9 -65 16 -16 3 -37 8
-45 11 -8 3 -26 7 -40 10 -14 2 -47 10 -75 16 -27 6 -61 14 -75 16 -14 2 -38
7 -55 11 -16 4 -34 8 -40 9 -25 5 -182 36 -205 40 -14 2 -36 7 -50 11 -14 3
-28 6 -33 5 -4 -1 -40 4 -80 12 -115 23 -150 29 -177 32 -14 1 -25 3 -25 4 0
1 -13 3 -30 5 -32 3 -104 14 -145 21 -14 2 -45 7 -70 10 -25 3 -56 7 -70 10
-14 2 -47 7 -75 9 -27 3 -63 8 -80 10 -39 6 -180 18 -227 19 -21 1 -38 3 -38
6 0 3 -21 5 -48 6 -26 0 -94 4 -152 8 -136 9 -380 17 -600 20 l-175 2 -2 29
c-1 17 -5 55 -8 85 -3 30 -8 71 -10 90 -2 19 -6 46 -9 60 -4 14 -9 39 -12 55
-3 17 -10 48 -15 70 -6 22 -13 51 -16 63 l-6 24 -131 -7 c-72 -3 -149 -8 -171
-10 -22 -2 -69 -6 -105 -9 -36 -3 -81 -8 -100 -10 -19 -3 -60 -7 -90 -11 -60
-6 -106 -12 -160 -20 -19 -3 -55 -8 -80 -12 -50 -6 -75 -11 -75 -13 0 -1 -18
-3 -40 -6 -22 -2 -47 -5 -55 -7 -8 -2 -33 -7 -55 -11 -133 -25 -336 -66 -400
-81 -11 -3 -29 -7 -40 -9 -66 -15 -235 -57 -265 -66 -19 -5 -91 -26 -160 -46
-69 -20 -147 -42 -175 -50 -27 -8 -57 -16 -65 -18 -8 -3 -16 -5 -17 -6 -2 -2
-7 -4 -13 -5 -5 -1 -11 -3 -12 -5 -2 -1 -10 -3 -18 -5 -21 -4 -200 -64 -225
-75 -18 -8 -55 -20 -80 -26 -40 -10 -484 -188 -538 -215 -10 -5 -39 -18 -65
-28 -53 -21 -199 -88 -222 -102 -8 -5 -26 -14 -40 -19 -36 -15 -295 -147 -360
-183 -30 -17 -71 -39 -90 -49 -19 -10 -51 -28 -70 -39 -19 -12 -53 -31 -75
-42 -22 -12 -42 -25 -45 -28 -3 -3 -21 -14 -40 -24 -19 -10 -53 -30 -75 -45
-22 -14 -101 -53 -175 -85 -123 -52 -192 -83 -275 -120 -16 -7 -66 -30 -110
-51 -44 -21 -82 -38 -85 -39 -3 0 -29 -13 -57 -28 -29 -15 -53 -24 -53 -20 0
5 -4 3 -8 -2 -4 -6 -50 -32 -102 -58 -164 -82 -341 -176 -462 -248 -64 -38
-122 -69 -127 -69 -6 0 -11 -5 -11 -10 0 -6 -8 -14 -17 -17 -10 -4 -53 -29
-95 -55 l-77 -48 -40 83 c-76 152 -97 180 -132 173 -20 -4 -198 -49 -284 -72
-62 -17 -65 -17 -95 17 -40 45 -140 193 -140 208 0 6 -4 11 -10 11 -5 0 -10 9
-10 19 0 11 -4 22 -9 25 -6 4 -47 103 -56 136 -1 3 -5 12 -8 20 -6 16 -36 130
-43 165 -2 11 -6 31 -9 45 -15 70 -19 110 -30 290 -5 85 -8 115 -20 245 -10
104 -20 174 -35 245 -5 25 -11 56 -13 70 -1 14 -5 30 -8 35 -4 6 -9 23 -13 38
l-7 28 53 -31 c29 -18 61 -34 71 -37 9 -3 17 -9 17 -14 0 -5 6 -9 13 -9 6 0
28 -10 47 -22 19 -12 41 -23 48 -24 8 -1 23 -11 34 -21 11 -10 21 -16 22 -14
0 2 32 -10 69 -27 38 -18 70 -32 73 -32 2 0 23 -8 47 -19 95 -42 304 -113 367
-125 8 -2 35 -9 60 -15 54 -16 76 -21 114 -26 15 -2 35 -7 45 -9 9 -3 32 -8
51 -10 19 -3 50 -7 68 -11 80 -14 162 -18 377 -19 236 0 342 6 530 30 28 4 59
8 70 9 11 1 20 3 20 4 0 2 18 4 40 7 22 3 54 9 70 14 27 8 62 15 122 25 12 2
27 6 32 10 10 6 23 9 78 21 12 2 35 9 50 15 16 6 35 12 43 14 8 2 51 17 95 34
273 103 496 228 748 420 107 81 131 100 200 162 l40 35 -34 18 c-19 9 -47 25
-64 35 -88 52 -203 110 -209 104 -3 -3 -6 -2 -6 4 0 6 -10 14 -22 18 -13 4
-25 8 -28 9 -3 1 -18 9 -34 17 -27 15 -27 17 -11 30 35 27 290 286 315 318 14
18 42 51 62 74 21 23 38 47 38 54 0 6 3 13 8 15 12 5 102 127 102 138 0 6 4
10 9 10 5 0 11 8 15 18 7 21 28 55 40 63 4 4 3 10 -4 14 -12 7 -211 62 -260
71 -14 2 -31 7 -39 10 -8 2 -30 7 -50 10 -20 3 -43 8 -51 11 -8 3 -22 7 -30 8
-8 1 -31 5 -50 8 -65 13 -75 15 -150 27 -41 6 -85 13 -97 16 -13 2 -33 6 -45
8 -27 5 -103 14 -253 31 -27 3 -63 7 -80 9 -16 2 -73 7 -125 11 -52 4 -117 9
-145 12 -62 5 -781 13 -786 9z m4489 -2609 c56 -2 105 -7 108 -10 3 -3 -7 -14
-23 -23 -15 -10 -30 -21 -33 -24 -14 -14 -71 -50 -80 -50 -5 0 -10 -4 -10 -10
0 -5 -7 -10 -15 -10 -8 0 -15 -4 -15 -8 0 -4 -15 -15 -32 -23 -88 -43 -183
-94 -186 -101 -2 -5 -11 -8 -19 -8 -9 0 -37 -10 -62 -21 -70 -33 -79 -36 -176
-65 -49 -14 -97 -28 -105 -31 -17 -7 -17 -7 -91 -22 -69 -15 -94 -19 -144 -26
-119 -16 -163 -19 -300 -16 -287 6 -571 5 -705 -3 -190 -12 -197 -12 -275 -21
-38 -4 -83 -8 -100 -10 -99 -8 -191 -20 -330 -42 -16 -2 -41 -5 -55 -7 -32 -4
-119 -17 -145 -23 -11 -2 -33 -6 -50 -9 -16 -3 -52 -9 -80 -15 -27 -6 -61 -13
-75 -15 -30 -5 -116 -22 -150 -30 -14 -3 -34 -7 -45 -9 -17 -4 -293 -69 -335
-80 -8 -2 -15 -4 -15 -5 0 -1 -7 -3 -15 -5 -32 -7 -178 -46 -260 -70 -73 -20
-218 -55 -255 -60 -16 -2 -40 -7 -52 -10 -41 -9 -57 -12 -106 -19 -27 -4 -59
-9 -70 -12 -12 -2 -44 -7 -72 -10 -27 -3 -66 -7 -85 -10 -19 -2 -93 -7 -165
-10 -71 -3 -132 -6 -135 -6 -3 0 -15 0 -27 1 -28 1 -31 21 -4 21 11 0 21 5 23
11 2 5 10 11 18 13 8 1 29 10 47 19 18 9 39 17 47 17 8 0 16 3 18 8 3 8 149
67 160 65 3 -2 12 4 18 12 7 8 21 15 31 15 10 0 21 5 24 10 4 6 11 8 16 4 5
-3 17 0 25 7 9 7 22 14 29 15 7 1 28 9 46 17 19 8 63 25 99 37 36 12 79 28 96
36 17 7 40 15 50 17 11 1 24 5 29 9 22 13 483 158 515 162 9 1 20 5 26 9 6 3
26 9 44 12 18 3 41 10 51 16 11 5 19 7 19 4 0 -4 6 -3 13 2 6 4 17 8 22 9 6 1
45 11 86 22 42 12 86 23 100 26 13 3 62 15 109 26 47 12 96 24 110 26 14 3 39
9 55 14 17 4 48 12 70 16 22 4 45 8 50 10 6 1 21 4 35 7 14 3 59 12 100 20 41
9 86 18 100 21 14 2 49 9 78 15 29 6 56 10 60 10 4 -1 9 0 12 1 9 3 34 8 80
14 25 4 53 9 63 12 10 3 35 7 55 9 20 2 48 6 62 9 25 4 84 13 150 22 19 2 51
7 70 10 39 6 67 9 155 19 33 4 74 8 90 10 43 5 120 13 195 21 65 6 101 9 250
19 47 3 112 7 145 10 33 2 168 7 300 11 132 3 241 7 242 8 3 3 389 -3 501 -7z"/>
</g>
</svg>
