<svg xmlns="http://www.w3.org/2000/svg" version="1.1" xmlns:xlink="http://www.w3.org/1999/xlink" xmlns:svgjs="http://svgjs.dev/svgjs" width="59" height="59"><svg id="SvgjsSvg1050" xmlns="http://www.w3.org/2000/svg" viewBox="0 0 59 59">
  <defs>
    <style>
      .cls-1 {
        fill: #0b334c;
      }

      .cls-2 {
        fill: #2a9ad7;
      }

      .cls-3 {
        fill: #f29131;
      }

      .cls-4 {
        fill: #22130c;
      }
    </style>
  </defs>
  <path class="cls-4" d="M47.2767,29.1976c0,9.9411-8.0589,18-18,18S11.2767,39.1387,11.2767,29.1976,19.3356,11.1976,29.2767,11.1976s18,8.0589,18,18"></path>
  <path class="cls-4" d="M42.0635,32.2767l-4.492,1.4131s-1.0584,1.2448-1.5138,2.0865c-.2969,.1213-.8889,.3011-1.8695,.3011-.9044,0-2.6741-.2439-4.4018-1.2973-2.6334-1.606-1.998-5.807-1.998-5.807,.4294-.0883,.9407-.1766,1.0899-.2015,.0306-.005,.0546-.0024,.0837,.0083,1.4332,.5238,4.6592,1.3047,7.5234,1.3047,3.375,0,5.4727-.9533,6.234-2.8336,.9547-2.357-.9756-5.8701-2.957-8.2477-4.0723-4.8867-10.2116-5.654-12.7662-5.7061l-.272-.5596c-.7986-1.6425-3.5328-3.8024-5.3516-4.5646-3.0309-1.27-6.6576-1.4596-8.5495-1.4596-.8874,0-1.4552,.0409-1.4793,.0426l-3.2804,.2395,2.3286,1.951c2.8816,2.4151,4.8447,3.6663,7.6479,5.1701-.0288,.0063-3.4655,1.0368-4.9756,1.6637-4.6496,1.9303-8.043,4.992-9.6682,6.6139l-.04,.04-.0369,.0428c-.4261,.4925-.7947,.9597-1.1275,1.4284l-1.5553,2.1907,2.6763,.236c.3555,.0312,1.1089,.0839,2.1588,.0839,2.4927,0,6.0904-.2792,9.8965-1.547-1.169,3.5555-.9064,7.5966,.7366,11.0926,2.2447,4.7765,7.3291,8.79,13.9557,8.79,5.1659,.0135,9.4436-2.7119,11.9879-5.9809,2.7682-3.557,3.0294-7.4421,3.0294-7.4421l-3.0138,.9479-.0003,.0002Z"></path>
  <path class="cls-1" d="M12.8228,7.9998c1.8145,0,5.1325,.1796,7.8629,1.3237,1.535,.6431,3.9735,2.5768,4.6168,3.8997-.0551-.0002-.1099-.0004-.165-.0004-1.759,0-3.4935,.111-5.1825,.3195-3.1063-1.6462-5.4084-2.9326-8.478-5.5048,0,0,.515-.0376,1.3458-.0376"></path>
  <path class="cls-3" d="M41.1728,37.3697c-2.4966,3.4677-6.4625,5.8859-11.2941,5.8323-9.6512-.1064-12.6661-8.6192-12.6661-8.6192,0,0,1.7181-1.7609,4.5569-3.344,1.9312-1.0768,4.3874-1.8579,4.3874-1.8579,0,0-.3378,4.9275,2.8952,6.8193,3.2498,1.9019,7.5596,1.5048,8.0648,.7224,.4938-.7654,1.1887-1.9097,1.1887-1.9097l4.6926-1.4762s-.4001,1.8534-1.8254,3.833"></path>
  <path class="cls-2" d="M38.343,19.9372c-1.1017-1.4456-4.7232-4.2198-9.1193-4.9651-5.0448-.8555-11.7702,.6212-15.777,2.2371-4.298,1.8359-7.5205,4.643-9.156,6.2757-.3682,.4254-.7165,.8618-1.0366,1.3126,1.0239,.0902,6.9581,.4805,12.9685-1.955,.6898-.2797,1.6224-.7042,2.2692-.9981-1.8269,3.0114-2.8932,6.8025-1.8254,11.0953,0,0,2.0408-1.8138,4.4245-3.0873,1.7459-.9328,3.9788-2.0271,7.5797-2.6061,.2104-.0339,.3424-.061,.7626,.0776,3.5483,1.169,10.4004,2.4695,11.6642-.6509,.6992-1.7266-1.5016-5.0916-2.7545-6.7356m-6.6041,.4093c-.2852,.4932-1.1909,.5034-2.0238,.0229-.8323-.4805-1.2765-1.2697-.9918-1.7629,.2849-.4932,1.1909-.5032,2.0238-.0229,.8325,.4805,1.2765,1.2697,.9918,1.7629"></path>
</svg><style>@media (prefers-color-scheme: light) { :root { filter: none; } }
@media (prefers-color-scheme: dark) { :root { filter: none; } }
</style></svg>