<?xml version="1.0" encoding="UTF-8"?>
<svg id="DHS" xmlns="http://www.w3.org/2000/svg" xmlns:xlink="http://www.w3.org/1999/xlink"
    viewBox="0 0 128 72">
    <title>Desert Hare Studios's Logo</title>
    <defs>
        <style>
            .cls-1 {
            fill: oklab(30.152% -0.03374 -0.05696);
            }

            .cls-2 {
            fill: oklab(65.56% -0.07121 -0.12024);
            }

            .cls-3 {
            fill: oklab(74.198% 0.07995 0.13498);
            }

            .cls-4 {
            fill: oklab(20.103% 0.02332 0.03938);
            }

            .cls-5 {
            fill: currentColor
            }
        </style>
    </defs>
    <g>
        <path class="cls-4"
            d="M54.0001,35.921c0,9.9411-8.0589,18-18,18s-18-8.0589-18-18,8.0589-18,18-18,18,8.0589,18,18h0Z" />
        <path class="cls-4"
            d="M48.7869,39.0001l-4.492,1.4131s-1.0584,1.2448-1.5138,2.0865c-.2969,.1213-.8889,.3011-1.8695,.3011-.9044,0-2.6741-.2439-4.4018-1.2973-2.6334-1.606-1.998-5.807-1.998-5.807,.4294-.0883,.9407-.1766,1.0899-.2015,.0306-.005,.0546-.0024,.0837,.0083,1.4332,.5238,4.6592,1.3047,7.5234,1.3047,3.375,0,5.4727-.9533,6.234-2.8336,.9547-2.357-.9756-5.8701-2.957-8.2477-4.0723-4.8867-10.2116-5.654-12.7662-5.7061l-.272-.5596c-.7986-1.6425-3.5328-3.8024-5.3516-4.5646-3.0309-1.27-6.6576-1.4596-8.5495-1.4596-.8874,0-1.4552,.0409-1.4793,.0426l-3.2804,.2395,2.3286,1.951c2.8816,2.4151,4.8447,3.6663,7.6479,5.1701-.0288,.0063-3.4655,1.0368-4.9756,1.6637-4.6496,1.9303-8.043,4.992-9.6682,6.6139l-.04,.04-.0369,.0428c-.4261,.4925-.7947,.9597-1.1275,1.4284l-1.5553,2.1907,2.6763,.236c.3555,.0312,1.1089,.0839,2.1588,.0839,2.4927,0,6.0904-.2792,9.8965-1.547-1.169,3.5555-.9064,7.5966,.7366,11.0926,2.2447,4.7765,7.3291,8.79,13.9557,8.79,5.1659,.0135,9.4436-2.7119,11.9879-5.9809,2.7682-3.557,3.0294-7.4421,3.0294-7.4421l-3.0138,.9479Z" />
        <path class="cls-1"
            d="M19.5462,14.7232c1.8145,0,5.1325,.1796,7.8629,1.3237,1.535,.6431,3.9735,2.5768,4.6168,3.8997-.0551-.0002-.1099-.0004-.165-.0004-1.759,0-3.4935,.111-5.1825,.3195-3.1063-1.6462-5.4084-2.9326-8.478-5.5048,0,0,.515-.0376,1.3458-.0376h0Z" />
        <path class="cls-3"
            d="M47.8962,44.0931c-2.4966,3.4677-6.4625,5.8859-11.2941,5.8323-9.6512-.1064-12.6661-8.6192-12.6661-8.6192,0,0,1.7181-1.7609,4.5569-3.344,1.9312-1.0768,4.3874-1.8579,4.3874-1.8579,0,0-.3378,4.9275,2.8952,6.8193,3.2498,1.9019,7.5596,1.5048,8.0648,.7224,.4938-.7654,1.1887-1.9097,1.1887-1.9097l4.6926-1.4762s-.4001,1.8534-1.8254,3.833h0Z" />
        <path class="cls-2"
            d="M45.0664,26.6606c-1.1017-1.4456-4.7232-4.2198-9.1193-4.9651-5.0448-.8555-11.7702,.6212-15.777,2.2371-4.298,1.8359-7.5205,4.643-9.156,6.2757-.3682,.4254-.7165,.8618-1.0366,1.3126,1.0239,.0902,6.9581,.4805,12.9685-1.955,.6898-.2797,1.6224-.7042,2.2692-.9981-1.8269,3.0114-2.8932,6.8025-1.8254,11.0953,0,0,2.0408-1.8138,4.4245-3.0873,1.7459-.9328,3.9788-2.0271,7.5797-2.6061,.2104-.0339,.3424-.061,.7626,.0776,3.5483,1.169,10.4004,2.4695,11.6642-.6509,.6992-1.7266-1.5016-5.0916-2.7545-6.7356h0Zm-6.6041,.4093c-.2852,.4932-1.1909,.5034-2.0238,.0229-.8323-.4805-1.2765-1.2697-.9918-1.7629,.2849-.4932,1.1909-.5032,2.0238-.0229,.8325,.4805,1.2765,1.2697,.9918,1.7629h0Z" />
    </g>
    <g>
        <g>
            <path class="cls-5"
                d="M75.0693,44.3569h-.0381v-.3809c0-.0381-.0195-.0571-.0576-.0571h-1.8281c-.1328,0-.1758,.0571-.1758,.1665v.0859c0,.1333,.0381,.1523,.1611,.1714l2.1523,.2998c.5527,.0762,.7471,.2998,.7471,.8237v.2759c0,.5713-.252,.8809-1.0186,.8809h-3.085v-.8999h2.7666c.1611,0,.2041-.0522,.2041-.2046v-.0952c0-.1191-.0332-.1572-.1523-.1714l-2.0752-.2617c-.5625-.0718-.7861-.2954-.7861-.7998v-.2427c0-.5,.248-.7905,.8662-.7905h3.0811c.0996,0,.1475,.0522,.1475,.1523v.7144l-.9092,.333Z" />
            <path class="cls-5"
                d="M78.9727,44.0239v2.5991h-.9805v-2.5991h-1.4385l-.3184-.8286v-.0381h4.5938c.0947,0,.1377,.0474,.1377,.1431v.8994l-.9092,.3379h-.0381v-.4614c0-.0381-.0137-.0522-.0518-.0522h-.9951Z" />
            <path class="cls-5"
                d="M81.2627,43.1572h.9805v2.0327c0,.3906,.1523,.5332,.5146,.5332h1.3086c.3672,0,.5195-.1426,.5195-.5425v-2.0234h.9805v2.0898c0,.8618-.376,1.376-1.4141,1.376h-1.4805c-1.0283,0-1.4092-.5142-1.4092-1.376v-2.0898Z" />
            <path class="cls-5"
                d="M85.9844,43.3003c0-.0957,.043-.1431,.1338-.1431h2.5986c1.0332,0,1.4141,.5381,1.4141,1.376v.7139c0,.8379-.3809,1.376-1.4141,1.376h-1.3994l-.3135-.8091h-.0391v.8091h-.9805v-3.3228Zm.9805,2.4229h1.6621c.3711,0,.5186-.1475,.5186-.5615v-.5811c0-.4331-.1426-.5566-.5186-.5566h-1.5898c-.043,0-.0723,.0332-.0723,.0713v1.6279Z" />
            <path class="cls-5" d="M90.5264,46.623v-3.4658h.9814v3.4658h-.9814Z" />
            <path class="cls-5"
                d="M96.2725,45.2471c0,.8379-.3809,1.376-1.4092,1.376h-1.543c-1.0332,0-1.4141-.5381-1.4141-1.376v-.7139c0-.8379,.3809-1.376,1.4141-1.376h1.543c1.0283,0,1.4092,.5381,1.4092,1.376v.7139Zm-2.7188,.4761h1.2188c.4238,0,.5186-.1616,.5186-.6855v-.457c0-.4238-.1475-.5566-.5186-.5566h-1.3662c-.4238,0-.5186,.1616-.5186,.6807v.457c0,.4761,.1758,.5615,.666,.5615Z" />
            <path class="cls-5"
                d="M99.7861,44.3569h-.0381v-.3809c0-.0381-.0195-.0571-.0576-.0571h-1.8281c-.1328,0-.1758,.0571-.1758,.1665v.0859c0,.1333,.0381,.1523,.1611,.1714l2.1523,.2998c.5527,.0762,.7471,.2998,.7471,.8237v.2759c0,.5713-.252,.8809-1.0186,.8809h-3.085v-.8999h2.7666c.1611,0,.2041-.0522,.2041-.2046v-.0952c0-.1191-.0332-.1572-.1523-.1714l-2.0752-.2617c-.5625-.0718-.7861-.2954-.7861-.7998v-.2427c0-.5,.248-.7905,.8662-.7905h3.0811c.0996,0,.1475,.0522,.1475,.1523v.7144l-.9092,.333Z" />
        </g>
        <g>
            <path class="cls-5"
                d="M62.373,25.6504c0-.1626,.0732-.2437,.2275-.2437h4.4326c1.7617,0,2.4111,.9175,2.4111,2.3462v1.2173c0,1.4287-.6494,2.3462-2.4111,2.3462h-2.3867l-.5361-1.3799h-.0645v1.3799h-1.6729v-5.666Zm1.6729,4.1318h2.833c.6328,0,.8848-.2515,.8848-.958v-.9902c0-.7388-.2441-.9497-.8848-.9497h-2.7119c-.0723,0-.1211,.0566-.1211,.1216v2.7764Z" />
            <path class="cls-5"
                d="M72.2725,27.8989h-.0566v1.7695c0,.0732,.0244,.1138,.1133,.1138h4.9844v1.5342h-6.5352c-.1621,0-.2354-.0811-.2354-.2437v-5.4224c0-.1626,.0732-.2437,.2354-.2437h6.3486c.1621,0,.2432,.0811,.2432,.2437v1.5342l-1.5498,.5762h-.0654v-.7871c0-.0649-.0322-.0894-.0811-.0894h-3.3525c-.0811,0-.1055,.0566-.1055,.1133v.7388h2.7598v1.2017h-2.3135l-.3896-1.0391Z" />
            <path class="cls-5"
                d="M83.7705,27.4526h-.0645v-.6494c0-.0654-.0322-.0977-.0977-.0977h-3.1172c-.2275,0-.2998,.0977-.2998,.2842v.146c0,.2275,.0645,.2598,.2754,.2925l3.6699,.5112c.9414,.1299,1.2744,.5112,1.2744,1.4043v.4707c0,.9741-.4307,1.502-1.7373,1.502h-5.2607v-1.5342h4.7168c.2754,0,.3486-.0894,.3486-.3491v-.1621c0-.2031-.0566-.2681-.2598-.2925l-3.5391-.4463c-.958-.1221-1.3398-.5034-1.3398-1.3638v-.4141c0-.8525,.4229-1.3477,1.4775-1.3477h5.252c.1709,0,.252,.0894,.252,.2598v1.2178l-1.5508,.5684Z" />
            <path class="cls-5"
                d="M88.2646,27.8989h-.0566v1.7695c0,.0732,.0244,.1138,.1133,.1138h4.9844v1.5342h-6.5352c-.1621,0-.2354-.0811-.2354-.2437v-5.4224c0-.1626,.0732-.2437,.2354-.2437h6.3486c.1621,0,.2432,.0811,.2432,.2437v1.5342l-1.5498,.5762h-.0654v-.7871c0-.0649-.0322-.0894-.0811-.0894h-3.3525c-.0811,0-.1055,.0566-.1055,.1133v.7388h2.7598v1.2017h-2.3135l-.3896-1.0391Z" />
            <path class="cls-5"
                d="M96.1348,28.4673v2.8491h-1.6729v-5.666c0-.1626,.0732-.2437,.2275-.2437h4.6191c1.4688,0,1.9971,.7227,1.9971,1.8916v.4219c0,1.1445-.5283,1.8511-1.9326,1.8511h-.1699c-.1621,0-.2842,0-.3975-.0083v.0566c.1377,.1299,.2842,.2925,.4131,.4546l.9424,1.1772v.0649h-1.8838l-2.0859-2.8491h-.0566Zm.1133-1.583c-.0645,0-.1133,.0405-.1133,.1377v1.291h2.873c.4385,0,.6172-.1465,.6172-.625v-.2031c0-.4546-.1787-.6006-.6172-.6006h-2.7598Z" />
            <path class="cls-5"
                d="M106.416,26.8843v4.4321h-1.6729v-4.4321h-2.4512l-.5439-1.4126v-.0649h7.834c.1621,0,.2354,.0811,.2354,.2437v1.5342l-1.5508,.5762h-.0654v-.7871c0-.0649-.0244-.0894-.0889-.0894h-1.6963Z" />
        </g>
        <g>
            <path class="cls-5"
                d="M64.4502,36.6377h-.0664v4.1436h-1.9482v-6.8872h1.9482v2.5542h4.5977v-2.5542h1.959v6.8872h-1.959v-2.6489h-3.9541l-.5771-1.4946Z" />
            <path class="cls-5"
                d="M77.4375,40.7812h-2.252v-.0757l3.4531-6.5845c.085-.1704,.1416-.2271,.3594-.2271h2.375c.2168,0,.2832,.0566,.3779,.2271l3.4248,6.5845v.0757h-5.8936l-.5684-1.4946v-.1895h1.9307c.8135,0,1.1543,.0098,1.4756,.0381l.0283-.0664c-.1611-.2744-.293-.4824-.6904-1.2866l-1.0879-2.1758c-.0283-.0474-.0664-.0664-.1328-.0664h-.1133c-.0566,0-.0947,.019-.123,.0664l-2.5635,5.1748Z" />
            <path class="cls-5"
                d="M91.3613,37.4604v3.3208h-1.9482v-6.6035c0-.189,.085-.2837,.2646-.2837h5.3828c1.7129,0,2.3271,.8418,2.3271,2.2041v.4922c0,1.334-.6143,2.1567-2.251,2.1567h-.1992c-.1895,0-.3311,0-.4639-.0093v.0664c.1611,.1514,.3311,.3403,.4834,.5298l1.0967,1.3716v.0757h-2.1943l-2.4316-3.3208h-.0664Zm.1328-1.8447c-.0762,0-.1328,.0474-.1328,.1611v1.5039h3.3496c.5107,0,.7188-.1699,.7188-.7285v-.2363c0-.5298-.208-.7002-.7188-.7002h-3.2168Z" />
            <path class="cls-5"
                d="M103.7139,36.7983h-.0664v2.0625c0,.085,.0283,.1323,.1328,.1323h5.8086v1.7881h-7.6152c-.1895,0-.2744-.0947-.2744-.2837v-6.3198c0-.189,.085-.2837,.2744-.2837h7.3975c.1895,0,.2842,.0947,.2842,.2837v1.7881l-1.8076,.6719h-.0752v-.918c0-.0757-.0381-.104-.0947-.104h-3.9072c-.0947,0-.123,.0664-.123,.1328v.8608h3.2168v1.3999h-2.6963l-.4541-1.2109Z" />
        </g>
    </g>
</svg>